# xmcd
#
# Track frame offsets:
#	150
#	12344
#	23272
#	38187
#	54826
#	80711
#	87882
#	95320
#	112396
#	125994
#	138616
#	148958
#	162975
#	176765
#	188304
#	204716
#	221756
#	234187
#
# Disc length: 3270 seconds
#
# Revision: 0
# Processed by: cddbd v1.5.1PL0 Copyright (c) Steve Scherf et al.
# Submitted via: dBpowerAMP V4.0
#
DISCID=fd0cc412
DTITLE=Kings Countrymen - Kings Countrymen LIVE Disk 1
DYEAR=2004
DGENRE=Bluegrass
TTITLE0=Intro And Just Any Day
TTITLE1=Nowhere to Run
TTITLE2=Just Another Hill
TTITLE3=Your Lost as a Ball in High Weeds
TTITLE4=Long Black Train
TTITLE5=Gospel Train
TTITLE6=Orange Blossom Special
TTITLE7=They Call it a Church
TTITLE8=Meeting in The Air
TTITLE9=Excuses
TTITLE10=Send The Light
TTITLE11=Brighter Mansion
TTITLE12=Are You Going to Heaven
TTITLE13=Wings of Angels
TTITLE14=Mesage of Peace
TTITLE15=Mama's Bible
TTITLE16=Just a Little Talk With Jesus
TTITLE17=Heading For That City
EXTD=
EXTT0=
EXTT1=
EXTT2=
EXTT3=
EXTT4=
EXTT5=
EXTT6=
EXTT7=
EXTT8=
EXTT9=
EXTT10=
EXTT11=
EXTT12=
EXTT13=
EXTT14=
EXTT15=
EXTT16=
EXTT17=
PLAYORDER=
